<?xml version="1.0" encoding="UTF-8" standalone="no"?>
<!DOCTYPE svg PUBLIC "-//W3C//DTD SVG 1.1//EN" "http://www.w3.org/Graphics/SVG/1.1/DTD/svg11.dtd">
<svg width="100%" height="100%" viewBox="0 0 477 572" version="1.1" xmlns="http://www.w3.org/2000/svg" xmlns:xlink="http://www.w3.org/1999/xlink" xml:space="preserve" xmlns:serif="http://www.serif.com/" style="fill-rule:evenodd;clip-rule:evenodd;stroke-linejoin:round;stroke-miterlimit:2;">
    <g transform="matrix(1,0,0,1,-136.589,-14.9474)">
        <g>
            <g id="path1" transform="matrix(1,0,0,1,136.589,14.9474)">
                <path d="M51.75,282.75C46.58,282.75 43.33,279.83 42,274C41.5,272.17 41.25,270.25 41.25,268.25C41.25,256.58 47.42,241.25 59.75,222.25C69.92,206.92 77.42,198.08 82.25,195.75C82.25,196.42 81.25,198 79.25,200.5C67.92,215.67 59.58,230.17 54.25,244C52.42,248.67 51.5,253.25 51.5,257.75C51.5,263.58 53.5,266.75 57.5,267.25L58,267.25C61.67,267.25 66.17,264.08 71.5,257.75C72.17,256.75 72.75,256.25 73.25,256.25C73.42,256.25 73.5,256.42 73.5,256.75L73.25,258.5C70.58,265.67 67,271.67 62.5,276.5C58.67,280.67 55.08,282.75 51.75,282.75Z" style="fill:rgb(255,176,0);"/>
            </g>
            <g id="path2" transform="matrix(1,0,0,1,136.589,14.9474)">
                <path d="M153.25,169C147.08,169 142.58,165.75 139.75,159.25C137.75,154.42 136.75,148.42 136.75,141.25L137,134C138,120.83 143.75,101.83 154.25,77C163.42,55.17 171.17,39.75 177.5,30.75C180.33,26.58 182.25,24.5 183.25,24.5L183.25,24.75C183.25,25.58 182.33,27.83 180.5,31.5C160.17,72.17 149.42,102.58 148.25,122.75L148.25,125.25C148.25,132.25 149.58,137.67 152.25,141.5C154.25,144.67 156.33,146.25 158.5,146.25L159.25,146.25C164.42,145.25 169.92,139.83 175.75,130C176.42,128.17 177.08,127.25 177.75,127.25C178.08,127.25 178.25,127.67 178.25,128.5L178,130.5C176.5,140.67 173.33,149.63 168.5,157.38C163.67,165.13 158.58,169 153.25,169Z" style="fill:rgb(255,176,0);"/>
            </g>
            <path id="path0" d="M137.589,365.697C136.919,365.697 136.589,365.527 136.589,365.197C136.589,364.197 139.169,362.027 144.339,358.697L207.339,321.697C231.339,307.367 249.919,293.947 263.089,281.447C246.419,277.617 238.089,270.027 238.089,258.697C238.089,249.527 240.509,240.777 245.339,232.447C244.009,227.777 243.339,223.697 243.339,220.197C243.339,215.367 244.669,211.617 247.339,208.947C251.009,205.277 255.259,203.447 260.089,203.447C264.759,203.447 270.089,205.027 276.089,208.197C297.259,219.867 311.339,234.027 318.339,250.697C319.009,251.867 319.339,253.277 319.339,254.947C319.339,260.777 317.509,267.447 313.839,274.947C310.169,282.447 306.669,286.197 303.339,286.197C302.009,286.197 292.089,285.197 273.589,283.197C264.419,296.197 252.919,307.777 239.089,317.947C222.759,329.947 207.759,339.027 194.089,345.197C191.259,346.697 175.509,352.697 146.839,363.197C142.339,364.867 139.259,365.697 137.589,365.697ZM306.589,266.697C307.419,266.697 307.839,266.197 307.839,265.197C307.839,264.197 307.509,262.867 306.839,261.197C302.169,251.027 294.259,243.617 283.089,238.947C283.089,248.777 282.089,256.777 280.089,262.947C281.419,263.277 290.009,264.527 305.839,266.697L306.589,266.697ZM271.589,261.197C272.419,258.527 272.839,255.867 272.839,253.197C272.839,250.367 272.419,247.447 271.589,244.447C270.089,238.117 267.259,234.947 263.089,234.947C260.589,234.947 257.299,236.987 253.219,241.077C249.129,245.157 247.089,248.277 247.089,250.447C247.089,255.447 255.259,259.027 271.589,261.197Z" style="fill:rgb(255,176,0);"/>
            <g id="path5" transform="matrix(1,0,0,1,136.589,14.9474)">
                <path d="M306.25,105.5C305.75,105.5 305.5,104.5 305.5,102.5L305.75,98.25C306.08,95.75 306.33,91.08 306.5,84.25C304.5,61.08 291.25,41.58 266.75,25.75C265.75,25.25 265.25,24.42 265.25,23.25C265.25,22.75 266.75,18.58 269.75,10.75C269.92,10.08 270.33,9.75 271,9.75L272.25,10.25C294.58,22.25 307.67,41.17 311.5,67C312.17,71.33 312.5,75.5 312.5,79.5C312.5,86.33 311.58,92.83 309.75,99C308.42,103.33 307.25,105.5 306.25,105.5Z" style="fill:rgb(255,176,0);"/>
            </g>
            <g id="path6" transform="matrix(1,0,0,1,136.589,14.9474)">
                <path d="M56.75,416.75L56.75,416.5C56.75,416 58.17,414.17 61,411C75.5,395.17 82.75,384.67 82.75,379.5C82.75,374.5 80.42,372 75.75,372C73.25,372 70.92,372.67 68.75,374L66,375.75C65.67,375.42 65.33,375.25 65,375.25L65.5,373C67.67,360.83 73.17,354.75 82,354.75C89.17,354.92 92.75,359.33 92.75,368C92.75,374.67 90,382.29 84.5,390.88C79,399.46 71.83,406.83 63,413C59.5,415.5 57.42,416.75 56.75,416.75Z" style="fill:rgb(255,176,0);"/>
            </g>
            <g id="path7" transform="matrix(1,0,0,1,136.589,14.9474)">
                <path d="M267.25,158.25C269.25,150.58 272.33,142.33 276.5,133.5L390.25,93C392.42,92.17 393.92,91.75 394.75,91.75C395.42,91.75 395.75,92.17 395.75,93C395.75,93.83 395.42,95 394.75,96.5C391.42,104.33 388.75,109.08 386.75,110.75C352.42,122.75 312.58,138.58 267.25,158.25Z" style="fill:rgb(255,176,0);"/>
            </g>
            <g id="path8" transform="matrix(1,0,0,1,136.589,14.9474)">
                <path d="M323.5,236.75C318.83,236.75 314.67,234.33 311,229.5C306.83,223.67 304.75,216.08 304.75,206.75L304.75,184.75C304.75,183.08 303.54,181.88 301.13,181.13C298.71,180.38 297.5,178.5 297.5,175.5C297.5,170.67 299.46,166.04 303.38,161.63C307.29,157.21 310.25,155 312.25,155C314.75,155 316,159.83 316,169.5C316,174.5 315.58,178.71 314.75,182.13C313.92,185.54 313.5,188.5 313.5,191C313.5,196.17 314.58,201.17 316.75,206C319.25,211.67 322.42,214.5 326.25,214.5C331.08,214.5 335.63,212.29 339.88,207.88C344.13,203.46 346.25,198.25 346.25,192.25C346.25,188.92 345.25,183.13 343.25,174.88C341.25,166.63 340.25,161.5 340.25,159.5C340.25,157.67 341.13,154.83 342.88,151C344.63,147.17 346,145.25 347,145.25C348.67,145.25 350.79,150.71 353.38,161.63C355.96,172.54 357.25,180.67 357.25,186C357.25,201 363.08,208.5 374.75,208.5C379.75,208.5 382.92,206 384.25,201C374.08,183.33 369,169.92 369,160.75C369,155.25 370.33,150.42 373,146.25C374.83,143.42 376.08,141.92 376.75,141.75C377.58,141.75 378.17,143.58 378.5,147.25C379,152.25 379.75,156.33 380.75,159.5C381.08,159.83 383.5,166 388,178C391,185.17 392.5,190.67 392.5,194.5C392.5,201.5 390.92,208.75 387.75,216.25C383.75,225.92 378.5,230.75 372,230.75C361.67,230.75 354.42,223.75 350.25,209.75C345.42,227.75 336.5,236.75 323.5,236.75Z" style="fill:rgb(255,176,0);"/>
            </g>
            <g id="path9" transform="matrix(1,0,0,1,136.589,14.9474)">
                <path d="M226.5,571.75C195,571.75 173,556.75 160.5,526.75C153.5,509.92 150,490.08 150,467.25C150,437.08 153.58,409 160.75,383C162.75,376 163.75,371.33 163.75,369C163.75,367.83 163.42,367.25 162.75,367.25C161.42,367.25 158.5,370.75 154,377.75C147,388.75 139.67,410.92 132,444.25C122,487.58 115.42,513.67 112.25,522.5C108.25,535 102.42,545 94.75,552.5C88.75,558.83 83.5,562 79,562C59,562 43.5,549.25 32.5,523.75C23.5,502.58 19,477 19,447C19,426.17 22.25,403.42 28.75,378.75C30.08,373.25 31.5,369.08 33,366.25C34.17,364.42 35.08,363.5 35.75,363.5C36.75,363.5 37.25,365.17 37.25,368.5C37.25,371.5 36.83,375.42 36,380.25C32.33,398.92 30.5,416.08 30.5,431.75C30.5,492.42 43.25,522.75 68.75,522.75C79.58,522.75 88.67,514.58 96,498.25C100.33,487.92 105.75,468.42 112.25,439.75C119.75,408.08 126,384.83 131,370C137,353.17 144.42,338.25 153.25,325.25C162.75,310.58 171,303.25 178,303.25C183.67,303.25 186.5,309.33 186.5,321.5C186.5,331.5 183.67,351.88 178,382.63C172.33,413.38 169.5,434.08 169.5,444.75C169.5,467.58 174.29,485.46 183.88,498.38C193.46,511.29 206.75,517.75 223.75,517.75C254.58,517.75 277.67,508.08 293,488.75C305.33,473.58 311.5,454.75 311.5,432.25C311.5,410.75 309.67,390 306,370C303.5,355.67 300.08,342.17 295.75,329.5C292.25,319 290.42,313.75 290.25,313.75C290.25,301.58 294.33,284.75 302.5,263.25C304.17,258.58 305.58,256.25 306.75,256.25C308.08,256.25 310.17,259.33 313,265.5C324.33,289.33 333.33,325.92 340,375.25C346.33,421.42 355.38,454.38 367.13,474.13C378.88,493.88 396.75,503.75 420.75,503.75C440.75,503.75 453.92,496.5 460.25,482C460.25,477 456.08,466.25 447.75,449.75C436.92,428.75 429.25,411.58 424.75,398.25C415.58,370.58 409.42,344.67 406.25,320.5C405.08,311.33 404.17,305.67 403.5,303.5C402.17,298.33 399.75,293.42 396.25,288.75C404.58,261.25 410.17,247.5 413,247.5C414.17,247.5 416.42,249.67 419.75,254C433.92,273.67 445.75,291.33 455.25,307C459.25,313.33 461.25,317.83 461.25,320.5C461.25,322.5 460.42,323.5 458.75,323.5C455.08,323.5 448.58,320.58 439.25,314.75C438.42,314.75 437.75,315.42 437.25,316.75C440.42,328.25 445.58,344.25 452.75,364.75C468.92,410.58 477,444 477,465C477,486 473.83,504.33 467.5,520C457.17,546.5 439.17,559.75 413.5,559.75C386.33,559.75 364.83,547.92 349,524.25C339.5,510.08 331.08,488.83 323.75,460.5C320.58,489 311.5,513.58 296.5,534.25C278.17,559.25 254.83,571.75 226.5,571.75Z" style="fill:rgb(0,162,181);"/>
            </g>
            <g id="path10" transform="matrix(1,0,0,1,136.589,14.9474)">
                <path d="M227.75,516C226.75,516 226.25,513.75 226.25,509.25C226.25,505.58 226.58,500.42 227.25,493.75C228.92,479.42 229.75,462.67 229.75,443.5C229.75,426.33 226.17,367.08 219,265.75C211.83,164.42 208.25,106.33 208.25,91.5C208.25,74.17 205.58,60 200.25,49C200.25,42.67 205.25,27.75 215.25,4.25C216.58,1.42 217.75,0 218.75,0C219.75,0 220.92,1.5 222.25,4.5C225.25,10.83 231.92,27.75 242.25,55.25C253.25,83.92 259.58,101.58 261.25,108.25C262.75,113.25 263.5,117 263.5,119.5C263.5,122 262.75,123.25 261.25,123.25C258.08,123.25 251.17,117.08 240.5,104.75C240,104.08 239.5,103.75 239,103.75C238.17,103.75 237.75,105.33 237.75,108.5C237.75,110 240.58,148.42 246.25,223.75L247.25,239.25C253.58,324.75 256.75,374.33 256.75,388C256.75,429.83 250.33,466.58 237.5,498.25C234.83,504.75 232.75,509.5 231.25,512.5C229.75,514.83 228.58,516 227.75,516Z" style="fill:rgb(0,162,181);"/>
            </g>
        </g>
    </g>
</svg>
